<svg width="20" height="20" viewBox="0 0 40 40" fill="none" xmlns="http://www.w3.org/2000/svg">
<path d="M39.5545 17.4049H35.029C34.772 17.4049 34.5262 17.516 34.353 17.7105L22.1231 31.7266V0.444428C22.1231 0.199993 21.9219 0 21.6761 0H18.3239C18.0781 0 17.8769 0.199993 17.8769 0.444428V31.7266L5.647 17.7105C5.47939 17.516 5.23356 17.4049 4.97097 17.4049H0.4455C0.0655842 17.4049 -0.141135 17.8549 0.11028 18.1382L18.6535 39.3874C18.8212 39.5797 19.0284 39.7339 19.2612 39.8396C19.494 39.9453 19.7469 40 20.0028 40C20.2587 40 20.5116 39.9453 20.7444 39.8396C20.9772 39.7339 21.1844 39.5797 21.3521 39.3874L39.8897 18.1382C40.1411 17.8493 39.9344 17.4049 39.5545 17.4049Z" fill="white"/>
</svg>
