<svg width="569" height="653" viewBox="0 0 569 653" fill="none" xmlns="http://www.w3.org/2000/svg">
<path d="M154.302 79.0361L157.652 79.9761L167.962 82.8661L169.042 79.0061L165.182 77.9261L168.572 65.8361L176.722 58.7561L178.892 81.7761L172.892 80.0861L171.812 83.9461L187.212 88.2661L188.292 84.4061L185.022 83.4961L181.882 54.2761L197.882 40.3661L202.372 41.6261L203.452 37.7661L188.042 33.4461L186.962 37.3061L192.042 38.7261L171.692 54.7161L177.332 34.6061L181.192 35.6861L182.272 31.8261L166.862 27.5061L165.782 31.3661L171.562 32.9861L159.412 76.3061L153.632 74.6861L153.482 75.2061L152.862 77.4461L154.302 79.0361Z" fill="black"/>
<path d="M362.369 606.812L357.884 605.554L356.804 609.405L372.21 613.725L373.29 609.874L368.216 608.451L388.56 592.455L382.918 612.574L379.067 611.494L377.987 615.345L393.393 619.665L394.473 615.814L388.695 614.194L400.845 570.865L406.623 572.485L407.703 568.634L392.297 564.314L391.217 568.165L395.068 569.245L391.677 581.339L383.531 588.419L381.366 565.403L387.365 567.085L388.445 563.234L373.04 558.914L371.96 562.765L375.233 563.683L378.375 592.9L362.369 606.812Z" fill="black"/>
<path d="M246.239 323.432C246.239 323.432 241.181 356.287 239.678 357.942C238.175 359.598 250.178 398.275 250.178 398.275L288.666 375.834C288.666 375.834 296.155 334.314 298.621 332.928C301.086 331.542 246.239 323.432 246.239 323.432Z" fill="#FFB8B8"/>
<path opacity="0.1" d="M246.239 323.432C246.239 323.432 241.181 356.287 239.678 357.942C238.175 359.598 250.178 398.275 250.178 398.275L288.666 375.834C288.666 375.834 296.155 334.314 298.621 332.928C301.086 331.542 246.239 323.432 246.239 323.432Z" fill="black"/>
<path d="M276.016 355.242C297.003 355.242 314.016 338.229 314.016 317.242C314.016 296.255 297.003 279.242 276.016 279.242C255.03 279.242 238.016 296.255 238.016 317.242C238.016 338.229 255.03 355.242 276.016 355.242Z" fill="#FFB8B8"/>
<path d="M259.546 375.976L256.235 372.971L241.35 351.787C241.35 351.787 239.642 350.662 238.022 356.439L236.402 362.216L222.418 367.642L191.475 500.211L274.281 523.431L308.382 390.709L292.365 373.755L290.592 365.575L265.864 375.671L259.546 375.976Z" fill="white"/>
<path d="M165.842 513.796L167.842 514.356L296.802 550.516L339.922 407.866C339.922 407.866 329.722 399.806 321.742 398.606C321.742 398.606 308.342 383.426 302.572 381.806C296.792 380.186 290.402 365.936 290.402 365.936C290.402 365.936 283.652 390.006 272.052 405.446C260.452 420.886 240.252 474.426 240.252 474.426L234.552 376.236L240.952 351.546C237.231 353.751 233.844 356.475 230.892 359.636C226.382 364.596 214.872 368.636 214.872 368.636C214.872 368.636 184.552 376.756 179.192 377.336C173.842 377.906 171.372 379.296 171.372 379.296L167.842 403.586L165.842 417.346V513.796Z" fill="#2F2E41"/>
<path d="M183.442 458.496C182.242 466.466 169.902 499.356 169.902 499.356L167.842 501.426L165.842 503.436V381.626C166.399 381.022 167.082 380.548 167.842 380.236C168.972 379.767 170.159 379.451 171.372 379.296L175.232 380.376C175.232 380.376 184.642 450.516 183.442 458.496Z" fill="#2F2E41"/>
<path d="M271.285 500.781C271.285 500.781 290.211 466.622 304.537 474.794C318.862 482.965 295.897 505.605 295.897 505.605L271.285 500.781Z" fill="#FFB8B8"/>
<path d="M212.704 487.47C212.704 487.47 176.385 476.247 175.575 479.135C174.765 482.024 164.82 498.968 167.709 499.778C170.598 500.588 193.013 505.835 192.743 506.798C192.473 507.761 203.488 512.927 203.488 512.927L212.704 487.47Z" fill="#FFB8B8"/>
<path d="M283.507 379.459L260.392 380.368L255.578 379.018L236.305 366.223L229.922 385.325L254.228 383.832L259.042 385.182L279.028 399.095L283.507 379.459Z" fill="black"/>
<path d="M221.392 523.146L217.842 530.706L166.842 516.706L165.842 513.796V497.766L167.842 498.546L169.902 499.356L221.392 523.146Z" fill="#2F2E41"/>
<path d="M223.295 490.44C223.295 490.44 211.318 485.004 211.048 485.967C210.778 486.93 194.705 514.618 198.556 515.698C202.408 516.778 216.041 523.717 216.041 523.717L223.295 490.44Z" fill="white"/>
<path d="M333.182 405.972L339.922 407.862C339.922 407.862 343.774 408.942 344.079 415.259C344.385 421.576 349.612 451.084 347.147 452.469C344.681 453.855 343.988 452.622 345.374 455.088C346.759 457.554 347.992 456.861 346.49 458.517C344.987 460.172 341.538 513.211 330.361 530.848C319.184 548.485 315.791 556.881 311.94 555.801L212.109 527.807C212.109 527.807 216.555 488.55 220.676 488.667C224.798 488.784 292.315 503.562 292.315 503.562C292.315 503.562 318.469 402.885 333.182 405.972Z" fill="#2F2E41"/>
<path d="M172.801 382.012L165.177 381.531C165.177 381.531 160.821 381.256 158.556 387.163C156.291 393.07 141.741 419.376 143.89 421.528C146.039 423.681 147.142 422.742 144.935 424.619C142.728 426.496 141.653 425.42 142.713 427.504C143.773 429.588 131.037 481.217 137.281 501.778C143.524 522.339 144.482 531.474 148.838 531.75L261.749 538.88C261.749 538.88 269.198 500.025 264.857 498.743C260.515 497.46 185.43 488.685 185.43 488.685C185.43 488.685 189.121 384.051 172.801 382.012Z" fill="#2F2E41"/>
<path d="M253.627 275.593L247.392 271.121C247.392 271.121 265.979 260.676 285.821 267.601L281.734 260.328C281.734 260.328 297.034 259.173 305.94 275.966C310.622 284.794 316.003 295.136 318.202 305.704L325.637 307.788L320.793 313.124L329.914 322.376L319.079 318.135C318.632 323.789 316.715 329.228 313.517 333.913L309.046 340.147C309.046 340.147 304.611 317.119 305.319 314.595L303.55 320.906C303.55 320.906 298.2 313.279 299.262 309.492L294.236 312.848L294.29 305.375L268.991 305.769L274.371 301.151L259.324 298.974L266.951 293.624C266.951 293.624 248.241 297.228 245.663 303.993C243.085 310.758 232.403 317.294 232.403 317.294L230.386 309.92C230.386 309.92 232.67 279.927 253.627 275.593Z" fill="#2F2E41"/>
<path d="M240.563 289.263L240.86 287.968C243.75 275.388 221.522 251.993 221.297 251.758L220.903 251.346L221.057 250.796C221.497 249.228 223.26 247.835 238.716 251.185C244.734 252.49 250.735 254.08 253.247 254.762C252.967 247.579 244.062 238.062 243.967 237.961L242.847 236.774L244.413 236.315C254.679 233.306 266.694 243.286 270.533 246.819L276.952 223.93L289.653 242.69C297.45 231.018 308.729 231.491 309.222 231.518L310.805 231.604L310.045 232.996C304.702 242.772 303.739 249.192 303.683 252.358C317.899 235.469 330.71 236.94 331.268 237.014L333.209 237.27L331.863 238.692C313.252 258.357 311.061 284.298 311.041 284.558L310.974 285.432L240.563 289.263ZM223.512 251.198C227.442 255.457 244.436 274.679 243.029 287.126L309.138 283.53C309.684 278.902 313.036 256.881 328.843 239.029C324.535 239.414 314.374 241.869 303.668 255.551L302.441 257.118L301.916 255.198C301.834 254.896 300.044 247.863 307.469 233.576C304.065 233.898 296.14 235.679 290.539 245.03L289.733 246.376L277.713 228.622L271.544 250.622L270.334 249.396C270.199 249.259 257.303 236.347 246.581 237.887C249.333 241.092 255.919 249.533 255.197 256.169L255.07 257.343L253.933 257.024C241.305 253.483 226.882 250.461 223.512 251.198Z" fill="#FF005C"/>
<path d="M336.251 231.745C335.568 231.554 334.957 231.164 334.495 230.625C334.034 230.087 333.742 229.423 333.658 228.719C333.573 228.014 333.7 227.301 334.021 226.668C334.342 226.036 334.843 225.512 335.462 225.165C336.08 224.817 336.788 224.661 337.495 224.715C338.202 224.77 338.878 225.033 339.435 225.472C339.993 225.91 340.409 226.504 340.629 227.178C340.849 227.853 340.864 228.577 340.673 229.26C340.415 230.176 339.805 230.951 338.976 231.417C338.147 231.883 337.167 232.001 336.251 231.745V231.745ZM337.648 226.764C337.345 226.679 337.025 226.686 336.726 226.783C336.428 226.881 336.165 227.064 335.971 227.311C335.777 227.558 335.661 227.857 335.637 228.17C335.613 228.483 335.682 228.796 335.836 229.069C335.989 229.343 336.221 229.565 336.501 229.707C336.781 229.849 337.096 229.905 337.408 229.867C337.72 229.83 338.013 229.701 338.252 229.497C338.49 229.293 338.662 229.022 338.747 228.72C338.86 228.315 338.808 227.881 338.602 227.515C338.396 227.148 338.053 226.878 337.648 226.764V226.764Z" fill="#6C63FF"/>
<path d="M311.342 224.761C310.659 224.569 310.048 224.179 309.586 223.64C309.125 223.102 308.833 222.438 308.749 221.734C308.664 221.029 308.791 220.316 309.112 219.683C309.433 219.051 309.934 218.528 310.553 218.18C311.171 217.832 311.879 217.676 312.586 217.731C313.294 217.785 313.969 218.048 314.527 218.487C315.084 218.925 315.5 219.519 315.72 220.193C315.94 220.868 315.955 221.592 315.764 222.275C315.506 223.191 314.896 223.967 314.067 224.432C313.238 224.898 312.258 225.016 311.342 224.761V224.761ZM312.739 219.779C312.436 219.694 312.116 219.701 311.818 219.798C311.519 219.896 311.256 220.08 311.062 220.326C310.869 220.573 310.752 220.872 310.728 221.185C310.704 221.498 310.773 221.811 310.927 222.084C311.081 222.358 311.312 222.58 311.592 222.722C311.872 222.864 312.187 222.92 312.499 222.883C312.811 222.845 313.104 222.716 313.343 222.512C313.581 222.308 313.753 222.038 313.838 221.735C313.951 221.33 313.899 220.897 313.693 220.53C313.487 220.163 313.144 219.893 312.739 219.779V219.779Z" fill="#6C63FF"/>
<path d="M273.478 220.86C272.795 220.669 272.184 220.279 271.722 219.74C271.261 219.201 270.969 218.538 270.885 217.834C270.8 217.129 270.927 216.416 271.248 215.783C271.569 215.15 272.071 214.627 272.689 214.28C273.307 213.932 274.015 213.776 274.722 213.83C275.43 213.885 276.105 214.148 276.663 214.586C277.22 215.025 277.636 215.619 277.856 216.293C278.076 216.967 278.091 217.692 277.9 218.375C277.642 219.29 277.032 220.066 276.203 220.532C275.374 220.998 274.394 221.116 273.478 220.86ZM274.875 215.879C274.573 215.794 274.252 215.801 273.954 215.898C273.655 215.996 273.393 216.179 273.199 216.426C273.005 216.673 272.888 216.972 272.864 217.284C272.84 217.597 272.909 217.91 273.063 218.184C273.217 218.458 273.448 218.68 273.728 218.822C274.008 218.964 274.324 219.02 274.635 218.982C274.947 218.945 275.24 218.816 275.479 218.612C275.717 218.408 275.889 218.137 275.974 217.835C276.087 217.43 276.035 216.996 275.829 216.63C275.623 216.263 275.28 215.993 274.875 215.879V215.879Z" fill="#6C63FF"/>
<path d="M213.032 249.585C212.348 249.393 211.738 249.003 211.276 248.465C210.814 247.926 210.523 247.262 210.439 246.558C210.354 245.854 210.48 245.14 210.802 244.507C211.123 243.875 211.624 243.352 212.243 243.004C212.861 242.656 213.569 242.5 214.276 242.555C214.983 242.609 215.659 242.872 216.216 243.311C216.774 243.749 217.189 244.343 217.41 245.017C217.63 245.692 217.645 246.416 217.454 247.099C217.196 248.015 216.586 248.791 215.757 249.257C214.928 249.722 213.947 249.84 213.032 249.585V249.585ZM214.428 244.603C214.126 244.518 213.806 244.525 213.507 244.622C213.209 244.72 212.946 244.904 212.752 245.15C212.558 245.397 212.442 245.696 212.418 246.009C212.394 246.322 212.463 246.635 212.617 246.908C212.77 247.182 213.002 247.404 213.282 247.546C213.562 247.688 213.877 247.744 214.189 247.707C214.501 247.669 214.794 247.54 215.032 247.336C215.271 247.132 215.443 246.862 215.528 246.559C215.641 246.154 215.589 245.721 215.383 245.354C215.177 244.987 214.833 244.717 214.428 244.603V244.603Z" fill="#6C63FF"/>
<path d="M236.405 233.301C235.722 233.11 235.111 232.72 234.649 232.181C234.188 231.643 233.896 230.979 233.812 230.275C233.728 229.57 233.854 228.857 234.175 228.224C234.496 227.592 234.998 227.068 235.616 226.721C236.235 226.373 236.942 226.217 237.65 226.272C238.357 226.326 239.032 226.589 239.59 227.028C240.148 227.466 240.563 228.06 240.783 228.734C241.003 229.409 241.019 230.133 240.827 230.816C240.569 231.732 239.959 232.507 239.13 232.973C238.301 233.439 237.321 233.557 236.405 233.301V233.301ZM237.802 228.32C237.5 228.235 237.179 228.242 236.881 228.339C236.582 228.437 236.32 228.62 236.126 228.867C235.932 229.114 235.815 229.413 235.791 229.726C235.767 230.039 235.836 230.352 235.99 230.625C236.144 230.899 236.375 231.121 236.655 231.263C236.935 231.405 237.251 231.461 237.562 231.423C237.874 231.386 238.168 231.257 238.406 231.053C238.644 230.849 238.817 230.578 238.901 230.276C239.015 229.871 238.962 229.437 238.756 229.071C238.55 228.704 238.207 228.434 237.802 228.32Z" fill="#6C63FF"/>
<path d="M557.121 151.866C556.872 146.166 555.491 140.493 553.045 135.122C552.175 133.203 551.175 131.33 550.051 129.513C546.604 123.943 542.019 118.984 536.56 114.922C531.101 110.86 524.875 107.774 518.243 105.844L205.638 14.6876C192.28 10.8055 178.091 11.8211 166.186 17.5116C154.281 23.2021 145.631 33.1025 142.135 45.0402L13.1338 487.428C9.66511 499.374 11.6375 512.372 18.6182 523.569C25.5988 534.767 37.0175 543.25 50.3684 547.156L362.974 638.312C376.332 642.194 390.52 641.179 402.425 635.488C414.33 629.798 422.98 619.898 426.476 607.96L555.477 165.572C556.774 161.143 557.328 156.524 557.121 151.866V151.866ZM424.43 607.363C421.074 618.814 412.775 628.311 401.354 633.77C389.933 639.229 376.322 640.205 363.507 636.483L50.9019 545.326C38.0949 541.577 27.1417 533.438 20.445 522.696C13.7484 511.954 11.8549 499.485 15.18 488.025L144.182 45.6369C147.538 34.1855 155.836 24.6888 167.257 19.2299C178.678 13.7709 192.289 12.7954 205.104 16.5174L517.709 107.674C524.27 109.584 530.413 112.672 535.762 116.748C541.111 120.823 545.554 125.802 548.819 131.378C549.181 132 549.531 132.628 549.868 133.262C555.197 143.327 556.462 154.588 553.431 164.975L424.43 607.363Z" fill="#2F2E41"/>
<path d="M394.175 550.287C395.275 552.103 397.051 553.408 399.112 553.917C401.174 554.425 403.353 554.094 405.171 552.998C406.989 551.901 408.297 550.127 408.809 548.066C409.32 546.006 408.993 543.826 407.899 542.006L399.619 528.283L385.895 536.563C384.079 537.663 382.773 539.439 382.265 541.5C381.757 543.562 382.087 545.741 383.184 547.559C384.281 549.377 386.055 550.685 388.116 551.196C390.176 551.708 392.356 551.381 394.175 550.287V550.287Z" fill="#FF005C"/>
<path d="M165.899 101.133C164.885 99.2678 163.171 97.8817 161.135 97.279C159.099 96.6763 156.907 96.9061 155.041 97.9181C153.174 98.9301 151.786 100.641 151.18 102.676C150.574 104.711 150.8 106.904 151.809 108.772L159.448 122.862L173.539 115.223C175.404 114.208 176.79 112.494 177.392 110.459C177.995 108.423 177.765 106.231 176.753 104.364C175.741 102.498 174.03 101.109 171.995 100.503C169.96 99.8972 167.768 100.124 165.899 101.133V101.133Z" fill="#FF005C"/>
<path d="M277.797 551.624C277.82 552.319 277.812 553.015 277.784 553.706L284.897 555.818C285.65 555.387 286.372 554.904 287.058 554.373L277.797 551.624ZM214.845 75L89.3421 497.765L354.409 576.453L479.912 153.688L214.845 75ZM353.061 573.967L91.8285 496.417L216.193 77.4865L477.425 155.036L353.061 573.967ZM277.797 551.624C277.82 552.319 277.812 553.015 277.784 553.706L284.897 555.818C285.65 555.387 286.372 554.904 287.058 554.373L277.797 551.624Z" fill="#2F2E41"/>
<path d="M500.342 639H0.342163V641H500.342V639Z" fill="#3F3D56"/>
</svg>
