<svg width="167" height="439" viewBox="0 0 167 439" fill="none" xmlns="http://www.w3.org/2000/svg">
<path d="M142.21 355.441V303.704L47.4702 317.142L9.1712 412.554L71.659 430.024L80.3939 415.914L87.113 438.087L136.163 430.024L132.803 391.053L142.21 355.441Z" fill="#D9D9D9" fill-opacity="0.65"/>
<path d="M35.1569 117.719L0.685008 39.3573C0.685008 39.3573 3.91675 31.9447 11.4575 33.0037C11.4575 33.0037 21.6913 7.05961 41.0818 7.05961C41.0818 7.05961 70.1675 -8.82451 78.7855 7.05961C78.7855 7.05961 97.0987 22.9437 96.0214 37.7689C94.9442 52.5941 93.8669 63.1835 93.8669 63.1835C93.8669 63.1835 111.103 65.3014 107.871 73.7729C104.639 82.2445 103.562 82.2445 107.871 85.4213L112.18 88.5981C112.18 88.5981 201.592 168.019 152.038 284.502L147.729 302.504V319.447C147.729 319.447 38.9273 320.506 38.9273 319.447C38.9273 318.388 41.0818 312.035 36.7728 307.799C32.4638 303.563 32.4638 297.21 32.4638 297.21C32.4638 297.21 36.7728 276.031 34.6183 269.677C32.4638 263.323 31.3866 235.791 35.6956 229.437C40.0045 223.084 37.85 172.254 37.85 172.254L28.1548 154.252L31.3866 143.663L34.6183 133.074L35.1569 117.719Z" fill="#5A5F8A"/>
<path d="M35.6418 117.506L35.6905 117.617L35.6863 117.738L35.1476 133.092L35.1452 133.162L35.1249 133.228L31.8932 143.818L28.7259 154.196L38.3164 172.003L38.3741 172.11L38.3792 172.232L37.8501 172.254C38.3792 172.232 38.3792 172.232 38.3793 172.233L38.3793 172.234L38.3796 172.242L38.3808 172.269L38.3853 172.379C38.3893 172.475 38.3951 172.619 38.4025 172.806C38.4172 173.18 38.4383 173.73 38.4635 174.432C38.5141 175.835 38.5815 177.847 38.6488 180.281C38.7836 185.149 38.9183 191.706 38.9183 198.463C38.9183 205.219 38.7837 212.182 38.3784 217.86C38.1758 220.698 37.9049 223.225 37.5468 225.248C37.1938 227.244 36.7428 228.837 36.1339 229.735C35.1337 231.209 34.4028 234.007 33.9315 237.581C33.4642 241.124 33.2628 245.335 33.2628 249.557C33.2628 253.777 33.4641 257.997 33.7991 261.553C34.1356 265.125 34.603 267.983 35.1199 269.507C35.6924 271.195 35.821 273.796 35.7199 276.678C35.6181 279.581 35.2791 282.843 34.8741 285.896C34.4688 288.95 33.9961 291.804 33.6249 293.894C33.4393 294.939 33.2789 295.793 33.1649 296.387C33.1079 296.684 33.0625 296.915 33.0312 297.073L32.9954 297.253L32.9942 297.259C32.9942 297.263 32.9943 297.266 32.9944 297.27C32.9954 297.314 32.9973 297.38 33.0013 297.466C33.0093 297.64 33.0255 297.895 33.0581 298.215C33.1233 298.856 33.2541 299.756 33.5158 300.785C34.0406 302.849 35.0829 305.395 37.1441 307.421C39.4368 309.675 39.9956 312.484 39.9956 314.814C39.9956 315.98 39.8561 317.038 39.7191 317.863C39.6717 318.148 39.6236 318.412 39.5822 318.638C39.5643 318.736 39.5477 318.827 39.5329 318.909C39.5246 318.956 39.517 318.999 39.5102 319.04C39.6832 319.058 39.9071 319.076 40.1826 319.093C40.9689 319.143 42.1293 319.186 43.6153 319.222C46.585 319.294 50.8309 319.34 55.9302 319.364C66.1277 319.414 79.7258 319.381 93.3257 319.315C106.925 319.249 120.525 319.149 130.725 319.067C135.825 319.025 140.075 318.988 143.049 318.961C144.537 318.948 145.706 318.937 146.502 318.929L147.2 318.923V302.504V302.442L147.214 302.381L151.523 284.379L151.534 284.336L151.551 284.295C176.257 226.22 166.321 177.403 150.212 143.094C142.156 125.935 132.554 112.404 124.967 103.164C121.174 98.5441 117.885 94.9981 115.547 92.6087C114.377 91.414 113.446 90.5085 112.808 89.9026C112.488 89.5997 112.243 89.3716 112.077 89.2198C111.994 89.1438 111.932 89.087 111.89 89.0493L111.846 89.0096L107.557 85.8476C106.487 85.0592 105.688 84.4237 105.182 83.7793C104.645 83.0953 104.436 82.3987 104.516 81.5338C104.591 80.7199 104.924 79.7594 105.409 78.5263C105.586 78.0761 105.784 77.5882 106.002 77.0505C106.396 76.0804 106.856 74.9483 107.376 73.5841C108.111 71.6594 107.688 70.1386 106.64 68.884C105.561 67.5933 103.805 66.5746 101.881 65.792C99.9688 65.0141 97.9486 64.4924 96.4 64.165C95.6272 64.0016 94.9753 63.8874 94.5175 63.8141C94.2886 63.7774 94.1085 63.751 93.9862 63.7339C93.925 63.7253 93.8784 63.7191 93.8474 63.715L93.8127 63.7105L93.8044 63.7095L93.8026 63.7093L93.8023 63.7092L93.8023 63.7092L93.2875 63.646L93.34 63.1299L93.8669 63.1835C93.34 63.1299 93.34 63.1299 93.34 63.1298L93.34 63.1295L93.3402 63.1281L93.3407 63.1223L93.3431 63.0994L93.3523 63.008L93.3882 62.6473C93.4197 62.3293 93.466 61.8582 93.5248 61.2465C93.6426 60.0232 93.8108 58.2373 94.0126 55.9883C94.4164 51.4902 94.9548 45.1396 95.4931 37.7305C96.0168 30.5244 91.817 22.9833 87.3863 17.1761C85.1817 14.2866 82.9422 11.8549 81.2533 10.1454C80.4092 9.291 79.7035 8.61789 79.2097 8.15912C78.9629 7.92976 78.769 7.75403 78.6374 7.63608C78.5716 7.5771 78.5213 7.53257 78.4878 7.50301L78.4501 7.46995L78.441 7.46196L78.4389 7.46013L78.4384 7.45975L78.7855 7.05961L78.4384 7.45973L78.3658 7.39673L78.3199 7.3122C76.2555 3.50729 72.9743 1.59996 69.1602 0.878943C65.3257 0.154081 60.9651 0.633599 56.8244 1.61836C52.6905 2.60151 48.8164 4.07823 45.9718 5.31184C44.5507 5.92815 43.3892 6.48262 42.584 6.8825C42.1814 7.08242 41.868 7.24362 41.6559 7.3545C41.5499 7.40994 41.4691 7.45279 41.4153 7.48161L41.3548 7.51411L41.34 7.52213L41.3365 7.52402L41.3357 7.52443C41.3357 7.52446 41.3357 7.52447 41.2609 7.38764L41.3357 7.52447L41.217 7.58928H41.0818C31.637 7.58928 24.3679 13.9108 19.4183 20.3543C16.9512 23.5659 15.0822 26.7806 13.8296 29.1939C13.2037 30.3999 12.7326 31.4041 12.4185 32.1054C12.2615 32.456 12.1438 32.7308 12.0656 32.9172C12.0265 33.0103 11.9973 33.0814 11.9781 33.1287L11.9567 33.1818L11.9516 33.1946L11.9504 33.1975L11.9502 33.198L11.7971 33.5862L11.3838 33.5282C7.82199 33.028 5.28502 34.5193 3.61478 36.1611C2.77705 36.9846 2.16272 37.8422 1.75789 38.4949C1.55588 38.8205 1.40712 39.0934 1.30971 39.283C1.29437 39.3128 1.28032 39.3406 1.26753 39.3661L35.6418 117.506ZM39.1569 318.988C39.1572 318.988 39.1575 318.988 39.1579 318.988L39.1569 318.988Z" stroke="black" stroke-opacity="0.4" stroke-width="1.05933"/>
<path opacity="0.1" d="M44.1176 330.511C44.1176 330.511 57.0699 295.553 55.9905 289.197C54.9112 282.841 58.1493 270.129 58.1493 270.129L62.4667 184.324C62.4667 184.324 44.1176 108.052 85.1332 95.3398C85.1332 95.3398 95.5117 99.7843 104.015 114.087C112.424 117.763 122.628 127.066 125.069 150.425C129.387 191.739 109.958 297.672 100.244 315.681C90.53 333.689 84.0538 346.401 84.0538 346.401L73.9009 341.973C73.4816 342.789 73.2603 343.223 73.2603 343.223L44.1176 330.511Z" fill="#5A5F8A"/>
<path d="M76.9568 333.689L68.4822 351.698C68.4822 351.698 49.4142 345.342 49.4142 342.164C49.4142 338.986 57.8889 325.215 57.8889 325.215L76.9568 333.689Z" fill="#FFB8B8"/>
<path d="M89.4865 95.3398C89.4865 95.3398 114.382 105.933 118.712 147.247C123.041 188.561 103.558 294.494 93.8162 312.503C84.0745 330.511 77.58 343.223 77.58 343.223L48.3549 330.511C48.3549 330.511 61.3438 295.553 60.2614 289.197C59.179 282.841 62.4263 270.129 62.4263 270.129L66.7559 184.324C66.7559 184.324 48.3549 108.052 89.4865 95.3398Z" fill="#5A5F8A"/>
<path d="M62.4263 270.129L62.9394 270.261L62.9393 270.261L62.9389 270.262L62.9373 270.269L62.9306 270.296L62.9041 270.401C62.8809 270.495 62.8468 270.633 62.8038 270.812C62.7177 271.169 62.5958 271.688 62.4528 272.33C62.1666 273.615 61.7965 275.394 61.4601 277.369C60.783 281.345 60.2593 286.03 60.7836 289.109C60.9348 289.996 60.8357 291.314 60.5835 292.882C60.3284 294.468 59.9056 296.372 59.3709 298.465C58.3012 302.653 56.7749 307.631 55.2176 312.402C53.6597 317.175 52.0683 321.748 50.8666 325.127C50.2656 326.817 49.762 328.209 49.4085 329.178C49.2482 329.618 49.1187 329.971 49.0251 330.225L77.3354 342.539C77.3576 342.496 77.3815 342.449 77.407 342.4C77.6038 342.017 77.8957 341.449 78.2764 340.713C79.0379 339.239 80.1546 337.086 81.5757 334.371C84.4179 328.94 88.4781 321.257 93.3503 312.251C95.7472 307.82 98.7782 297.891 101.91 284.771C105.035 271.676 108.246 255.468 111.018 238.529C116.566 204.629 120.341 167.881 118.185 147.302C116.031 126.753 108.769 113.878 102.075 106.147C98.7259 102.28 95.5141 99.6941 93.1456 98.0781C91.9613 97.27 90.988 96.7044 90.314 96.3423C89.977 96.1612 89.7149 96.031 89.5387 95.9467C89.5069 95.9315 89.4779 95.9178 89.4517 95.9056C79.4539 99.0585 73.0505 106.049 69.0647 114.825C65.047 123.673 63.496 134.319 63.2263 144.613C62.9568 154.901 63.9677 164.8 65.0474 172.13C65.5871 175.795 66.1436 178.815 66.5649 180.917C66.7756 181.969 66.9524 182.791 67.0764 183.349C67.1384 183.628 67.1871 183.842 67.2203 183.985C67.2369 184.056 67.2496 184.11 67.2581 184.146L67.2677 184.187L67.2701 184.196L67.2706 184.199C67.2708 184.199 67.2708 184.199 66.7559 184.324L67.2708 184.199L67.2887 184.274L67.2849 184.35L62.9552 270.156L62.9526 270.209L62.9394 270.261L62.4263 270.129Z" stroke="black" stroke-opacity="0.3" stroke-width="1.05933"/>
</svg>
